<?xml version="1.0" encoding="UTF-8" standalone="no"?>
<svg
   xmlns:dc="http://purl.org/dc/elements/1.1/"
   xmlns:cc="http://creativecommons.org/ns#"
   xmlns:rdf="http://www.w3.org/1999/02/22-rdf-syntax-ns#"
   xmlns:svg="http://www.w3.org/2000/svg"
   xmlns="http://www.w3.org/2000/svg"
   xmlns:sodipodi="http://sodipodi.sourceforge.net/DTD/sodipodi-0.dtd"
   xmlns:inkscape="http://www.inkscape.org/namespaces/inkscape"
   version="1.1"
   x="0px"
   y="0px"
   viewBox="0 0 41.489361 59.999996"
   xml:space="preserve"
   id="svg28"
   sodipodi:docname="Calculator_Icon.svg"
   width="41.489361"
   height="59"
   inkscape:version="0.92.3 (2405546, 2018-03-11)"><metadata
   id="metadata34"><rdf:RDF><cc:Work
       rdf:about=""><dc:format>image/svg+xml</dc:format><dc:type
         rdf:resource="http://purl.org/dc/dcmitype/StillImage" /><dc:title></dc:title></cc:Work></rdf:RDF></metadata><defs
   id="defs32" /><sodipodi:namedview
   pagecolor="#ffffff"
   bordercolor="#666666"
   borderopacity="1"
   objecttolerance="10"
   gridtolerance="10"
   guidetolerance="10"
   inkscape:pageopacity="0"
   inkscape:pageshadow="2"
   inkscape:window-width="1920"
   inkscape:window-height="1017"
   id="namedview30"
   showgrid="false"
   fit-margin-top="0"
   fit-margin-left="0"
   fit-margin-right="0"
   fit-margin-bottom="0"
   inkscape:zoom="8.34386"
   inkscape:cx="21.607206"
   inkscape:cy="36.122298"
   inkscape:window-x="-8"
   inkscape:window-y="-8"
   inkscape:window-maximized="1"
   inkscape:current-layer="g22" /><g
   id="g22"
   transform="matrix(0.12765957,0,0,0.12765957,-12,-2.680851)"
   style="stroke:#000000;stroke-opacity:1;fill:none;stroke-width:7.84566954;stroke-miterlimit:4;stroke-dasharray:none"><path
     d="m 416.33195,74.037471 c 0,-27.146841 -22.03222,-49.17906 -49.17906,-49.17906 H 145.84712 c -27.14684,0 -49.179059,22.032219 -49.179059,49.17906 V 437.96252 c 0,27.14684 22.032219,49.17906 49.179059,49.17906 h 221.30577 c 27.14684,0 49.17906,-22.03222 49.17906,-49.17906 z"
     id="path2"
     inkscape:connector-curvature="0"
     style="fill:none;stroke:#b02925;stroke-width:7.72724434;stroke-miterlimit:4;stroke-dasharray:none;stroke-opacity:1"
     sodipodi:nodetypes="sssssssss" /><path
     d="m 375.02154,85.840445 c 0,-5.409696 -4.42611,-9.835812 -9.83581,-9.835812 H 146.8307 c -5.40969,0 -9.83581,4.426116 -9.83581,9.835812 v 65.899945 c 0,5.4097 4.42612,9.83581 9.83581,9.83581 h 218.35503 c 5.4097,0 9.83581,-4.42611 9.83581,-9.83581 z"
     id="path4"
     inkscape:connector-curvature="0"
     style="fill:none;stroke:#b02925;stroke-width:7.72724434;stroke-miterlimit:4;stroke-dasharray:none;stroke-opacity:1"
     sodipodi:nodetypes="sssssssss" /><path
     d="m 203.87841,198.95229 c 0,-5.4097 -4.42611,-9.83581 -9.83581,-9.83581 h -47.2119 c -5.40969,0 -9.83581,4.42611 -9.83581,9.83581 v 48.19548 c 0,5.40969 4.42612,9.83581 9.83581,9.83581 h 47.2119 c 5.4097,0 9.83581,-4.42612 9.83581,-9.83581 z"
     id="path6"
     inkscape:connector-curvature="0"
     style="fill:none;stroke:#b02925;stroke-width:7.72724434;stroke-miterlimit:4;stroke-dasharray:none;stroke-opacity:1"
     sodipodi:nodetypes="sssssssss" /><path
     d="m 203.87841,289.44176 c 0,-5.4097 -4.42611,-9.83581 -9.83581,-9.83581 h -47.2119 c -5.40969,0 -9.83581,4.42611 -9.83581,9.83581 v 48.19548 c 0,5.40969 4.42612,9.83581 9.83581,9.83581 h 47.2119 c 5.4097,0 9.83581,-4.42612 9.83581,-9.83581 z"
     id="path8"
     inkscape:connector-curvature="0"
     style="fill:none;stroke:#b02925;stroke-width:7.72724434;stroke-miterlimit:4;stroke-dasharray:none;stroke-opacity:1"
     sodipodi:nodetypes="sssssssss" /><path
     d="m 203.87841,377.96407 c 0,-5.4097 -4.42611,-9.83582 -9.83581,-9.83582 h -47.2119 c -5.40969,0 -9.83581,4.42612 -9.83581,9.83582 v 48.19547 c 0,5.4097 4.42612,9.83582 9.83581,9.83582 h 47.2119 c 5.4097,0 9.83581,-4.42612 9.83581,-9.83582 z"
     id="path10"
     inkscape:connector-curvature="0"
     style="fill:none;stroke:#b02925;stroke-width:7.72724434;stroke-miterlimit:4;stroke-dasharray:none;stroke-opacity:1"
     sodipodi:nodetypes="sssssssss" /><path
     d="m 289.44998,198.95229 c 0,-5.4097 -4.42612,-9.83581 -9.83582,-9.83581 h -47.21189 c -5.4097,0 -9.83581,4.42611 -9.83581,9.83581 v 48.19548 c 0,5.40969 4.42611,9.83581 9.83581,9.83581 h 47.21189 c 5.4097,0 9.83582,-4.42612 9.83582,-9.83581 z"
     id="path12"
     inkscape:connector-curvature="0"
     style="fill:none;stroke:#b02925;stroke-width:7.72724434;stroke-miterlimit:4;stroke-dasharray:none;stroke-opacity:1"
     sodipodi:nodetypes="sssssssss" /><path
     d="m 289.44998,289.44176 c 0,-5.4097 -4.42612,-9.83581 -9.83582,-9.83581 h -47.21189 c -5.4097,0 -9.83581,4.42611 -9.83581,9.83581 v 48.19548 c 0,5.40969 4.42611,9.83581 9.83581,9.83581 h 47.21189 c 5.4097,0 9.83582,-4.42612 9.83582,-9.83581 z"
     id="path14"
     inkscape:connector-curvature="0"
     style="fill:none;stroke:#b02925;stroke-width:7.72724434;stroke-miterlimit:4;stroke-dasharray:none;stroke-opacity:1"
     sodipodi:nodetypes="sssssssss" /><path
     d="m 289.44998,377.96407 c 0,-5.4097 -4.42612,-9.83582 -9.83582,-9.83582 h -47.21189 c -5.4097,0 -9.83581,4.42612 -9.83581,9.83582 v 48.19547 c 0,5.4097 4.42611,9.83582 9.83581,9.83582 h 47.21189 c 5.4097,0 9.83582,-4.42612 9.83582,-9.83582 z"
     id="path16"
     inkscape:connector-curvature="0"
     style="fill:none;stroke:#b02925;stroke-width:7.72724434;stroke-miterlimit:4;stroke-dasharray:none;stroke-opacity:1"
     sodipodi:nodetypes="sssssssss" /><path
     d="m 375.02154,198.95229 c 0,-5.4097 -4.42611,-9.83581 -9.83581,-9.83581 h -47.2119 c -5.4097,0 -9.83581,4.42611 -9.83581,9.83581 v 48.19548 c 0,5.40969 4.42611,9.83581 9.83581,9.83581 h 47.2119 c 5.4097,0 9.83581,-4.42612 9.83581,-9.83581 z"
     id="path18"
     inkscape:connector-curvature="0"
     style="fill:none;stroke:#b02925;stroke-width:7.72724434;stroke-miterlimit:4;stroke-dasharray:none;stroke-opacity:1"
     sodipodi:nodetypes="sssssssss" /><path
     d="m 375.02154,289.44176 c 0,-5.4097 -4.42611,-9.83581 -9.83581,-9.83581 h -47.2119 c -5.4097,0 -9.83581,4.42611 -9.83581,9.83581 v 137.70137 c 0,5.40969 4.42611,9.83581 9.83581,9.83581 h 47.2119 c 5.4097,0 9.83581,-4.42612 9.83581,-9.83581 z"
     id="path20"
     inkscape:connector-curvature="0"
     style="fill:none;stroke:#b02925;stroke-width:7.72724434;stroke-miterlimit:4;stroke-dasharray:none;stroke-opacity:1"
     sodipodi:nodetypes="sssssssss" /></g>

</svg>