<?xml version="1.0" encoding="UTF-8" standalone="no"?>
<svg
   xmlns:dc="http://purl.org/dc/elements/1.1/"
   xmlns:cc="http://creativecommons.org/ns#"
   xmlns:rdf="http://www.w3.org/1999/02/22-rdf-syntax-ns#"
   xmlns:svg="http://www.w3.org/2000/svg"
   xmlns="http://www.w3.org/2000/svg"
   xmlns:sodipodi="http://sodipodi.sourceforge.net/DTD/sodipodi-0.dtd"
   xmlns:inkscape="http://www.inkscape.org/namespaces/inkscape"
   version="1.1"
   x="0px"
   y="0px"
   viewBox="0 0 41.854183 60"
   enable-background="new 0 0 512 512"
   xml:space="preserve"
   id="svg12"
   sodipodi:docname="Find_Pincode_Icon.svg"
   width="41.854183"
   height="60"
   inkscape:version="0.92.3 (2405546, 2018-03-11)"><metadata
     id="metadata18"><rdf:RDF><cc:Work
         rdf:about=""><dc:format>image/svg+xml</dc:format><dc:type
           rdf:resource="http://purl.org/dc/dcmitype/StillImage" /><dc:title></dc:title></cc:Work></rdf:RDF></metadata><defs
     id="defs16" /><sodipodi:namedview
     pagecolor="#ffffff"
     bordercolor="#666666"
     borderopacity="1"
     objecttolerance="10"
     gridtolerance="10"
     guidetolerance="10"
     inkscape:pageopacity="0"
     inkscape:pageshadow="2"
     inkscape:window-width="1920"
     inkscape:window-height="1017"
     id="namedview14"
     showgrid="false"
     fit-margin-top="0"
     fit-margin-left="0"
     fit-margin-right="0"
     fit-margin-bottom="0"
     inkscape:zoom="8.34386"
     inkscape:cx="20.370501"
     inkscape:cy="32.106142"
     inkscape:window-x="-8"
     inkscape:window-y="-8"
     inkscape:window-maximized="1"
     inkscape:current-layer="g6" /><g
     id="g6"
     transform="matrix(0.11718773,0,0,0.11718773,-9.0729084,0)"
     style="stroke:#000000;stroke-opacity:1;fill:none;stroke-width:8.54675485;stroke-miterlimit:4;stroke-dasharray:none"><path
       d="M 380.46924,64.97153 C 364.36309,47.29756 345.5826,33.404477 324.65101,23.70735 302.88927,13.609906 279.77512,8.4765958 255.9695,8.4765958 c -23.77512,0 -46.85879,5.1333102 -68.62052,15.2297702 -20.93159,9.697127 -39.71209,23.590211 -55.84872,41.264181 -32.980464,36.192833 -51.146224,84.234873 -51.146224,135.288633 0,48.70301 21.961404,108.8549 65.285204,178.71965 34.08698,54.9576 72.50861,101.50853 92.36417,124.37679 4.51857,5.59461 11.0043,8.71354 17.98084,8.71354 h 0.0305 c 6.96178,0 13.46325,-3.11992 17.8274,-8.54535 19.99424,-23.0217 58.40013,-69.54214 92.48712,-124.54596 43.33856,-69.86476 65.31569,-130.00189 65.31569,-178.71965 9.9e-4,-51.05278 -18.16477,-99.09482 -51.17572,-135.28667 z"
       id="path2"
       inkscape:connector-curvature="0"
       style="fill:none;stroke:#b02925;stroke-width:8.41774723;stroke-miterlimit:4;stroke-dasharray:none;stroke-opacity:1"
       sodipodi:nodetypes="ccsccsccsscccc" /><path
       d="m 256.00737,116.07152 c -45.15227,0 -81.89887,36.73086 -81.89887,81.89887 0,45.16801 36.74561,81.91362 81.89887,81.91362 45.13752,0 81.88313,-36.74561 81.88313,-81.91362 0,-45.16801 -36.74561,-81.89887 -81.88313,-81.89887 z"
       id="path4"
       inkscape:connector-curvature="0"
       style="fill:none;stroke:#b02925;stroke-width:8.41774723;stroke-miterlimit:4;stroke-dasharray:none;stroke-opacity:1"
       sodipodi:nodetypes="sssss" /></g></svg>