<?xml version="1.0" encoding="UTF-8" standalone="no"?>
<!-- Created with Inkscape (http://www.inkscape.org/) -->

<svg
   xmlns:dc="http://purl.org/dc/elements/1.1/"
   xmlns:cc="http://creativecommons.org/ns#"
   xmlns:rdf="http://www.w3.org/1999/02/22-rdf-syntax-ns#"
   xmlns:svg="http://www.w3.org/2000/svg"
   xmlns="http://www.w3.org/2000/svg"
   xmlns:sodipodi="http://sodipodi.sourceforge.net/DTD/sodipodi-0.dtd"
   xmlns:inkscape="http://www.inkscape.org/namespaces/inkscape"
   width="60"
   height="60"
   viewBox="0 0 15.875 15.875"
   version="1.1"
   id="svg8"
   inkscape:version="0.92.3 (2405546, 2018-03-11)"
   sodipodi:docname="india-post-buy-stamps-Icon.svg">
  <defs
     id="defs2" />
  <sodipodi:namedview
     id="base"
     pagecolor="#ffffff"
     bordercolor="#666666"
     borderopacity="1.0"
     inkscape:pageopacity="0.0"
     inkscape:pageshadow="2"
     inkscape:zoom="7.9195959"
     inkscape:cx="25.017114"
     inkscape:cy="15.745113"
     inkscape:document-units="mm"
     inkscape:current-layer="layer1"
     showgrid="false"
     fit-margin-top="0"
     fit-margin-left="0"
     fit-margin-right="0"
     fit-margin-bottom="0"
     units="px"
     inkscape:window-width="1920"
     inkscape:window-height="1017"
     inkscape:window-x="-8"
     inkscape:window-y="-8"
     inkscape:window-maximized="1" />
  <metadata
     id="metadata5">
    <rdf:RDF>
      <cc:Work
         rdf:about="">
        <dc:format>image/svg+xml</dc:format>
        <dc:type
           rdf:resource="http://purl.org/dc/dcmitype/StillImage" />
        <dc:title></dc:title>
      </cc:Work>
    </rdf:RDF>
  </metadata>
  <g
     inkscape:label="Layer 1"
     inkscape:groupmode="layer"
     id="layer1"
     transform="translate(-22.300595,-121.99702)">
    <g
       transform="matrix(0.31228702,0,0,0.31228702,14.623744,114.32017)"
       id="g4"
       style="stroke:#b02925;stroke-opacity:1;stroke-width:0.84857833;stroke-miterlimit:4;stroke-dasharray:none">
      <path
         inkscape:connector-curvature="0"
         id="path2"
         d="m 74,33 c 0.6,0 1,-0.4 1,-1 v -6 c 0,-0.6 -0.4,-1 -1,-1 h -6 c -0.6,0 -1,0.4 -1,1 0,1.7 -1.3,3 -3,3 -1.7,0 -3,-1.3 -3,-3 0,-0.6 -0.4,-1 -1,-1 h -6 c -0.6,0 -1,0.4 -1,1 0,1.7 -1.3,3 -3,3 -1.7,0 -3,-1.3 -3,-3 0,-0.6 -0.4,-1 -1,-1 h -6 c -0.6,0 -1,0.4 -1,1 0,1.7 -1.3,3 -3,3 -1.7,0 -3,-1.3 -3,-3 0,-0.6 -0.4,-1 -1,-1 h -6 c -0.6,0 -1,0.4 -1,1 v 6 c 0,0.6 0.4,1 1,1 1.7,0 3,1.3 3,3 0,1.7 -1.3,3 -3,3 -0.6,0 -1,0.4 -1,1 v 6 c 0,0.6 0.4,1 1,1 1.7,0 3,1.3 3,3 0,1.7 -1.3,3 -3,3 -0.6,0 -1,0.4 -1,1 v 6 c 0,0.6 0.4,1 1,1 1.7,0 3,1.3 3,3 0,1.7 -1.3,3 -3,3 -0.6,0 -1,0.4 -1,1 v 6 c 0,0.6 0.4,1 1,1 h 6 c 0.6,0 1,-0.4 1,-1 0,-1.7 1.3,-3 3,-3 1.7,0 3,1.3 3,3 0,0.6 0.4,1 1,1 h 6 c 0.6,0 1,-0.4 1,-1 0,-1.7 1.3,-3 3,-3 1.7,0 3,1.3 3,3 0,0.6 0.4,1 1,1 h 6 c 0.6,0 1,-0.4 1,-1 0,-1.7 1.3,-3 3,-3 1.7,0 3,1.3 3,3 0,0.6 0.4,1 1,1 h 6 c 0.6,0 1,-0.4 1,-1 v -6 c 0,-0.6 -0.4,-1 -1,-1 -1.7,0 -3,-1.3 -3,-3 0,-1.7 1.3,-3 3,-3 0.6,0 1,-0.4 1,-1 v -6 c 0,-0.6 -0.4,-1 -1,-1 -1.7,0 -3,-1.3 -3,-3 0,-1.7 1.3,-3 3,-3 0.6,0 1,-0.4 1,-1 v -6 c 0,-0.6 -0.4,-1 -1,-1 -1.7,0 -3,-1.3 -3,-3 0,-1.7 1.3,-3 3,-3 z"
         sodipodi:nodetypes="sssssssssssssssssssssssssssssssssssssssssssssssssssssssssssssssssssss"
         style="fill:none;stroke:#b02925;stroke-width:0.84857833;stroke-miterlimit:4;stroke-dasharray:none;stroke-opacity:1" />
    </g>
  </g>
</svg>
