<?xml version="1.0" encoding="UTF-8" standalone="no"?>
<!-- Created with Inkscape (http://www.inkscape.org/) -->

<svg
   xmlns:dc="http://purl.org/dc/elements/1.1/"
   xmlns:cc="http://creativecommons.org/ns#"
   xmlns:rdf="http://www.w3.org/1999/02/22-rdf-syntax-ns#"
   xmlns:svg="http://www.w3.org/2000/svg"
   xmlns="http://www.w3.org/2000/svg"
   xmlns:sodipodi="http://sodipodi.sourceforge.net/DTD/sodipodi-0.dtd"
   xmlns:inkscape="http://www.inkscape.org/namespaces/inkscape"
   width="24.823503mm"
   height="15.875mm"
   viewBox="0 0 24.823503 15.875"
   version="1.1"
   id="svg8"
   inkscape:version="0.92.3 (2405546, 2018-03-11)"
   sodipodi:docname="IPPB_Logo.svg">
  <defs
     id="defs2" />
  <sodipodi:namedview
     id="base"
     pagecolor="#ffffff"
     bordercolor="#666666"
     borderopacity="1.0"
     inkscape:pageopacity="0.0"
     inkscape:pageshadow="2"
     inkscape:zoom="11.313708"
     inkscape:cx="37.563486"
     inkscape:cy="31.315427"
     inkscape:document-units="mm"
     inkscape:current-layer="layer1"
     showgrid="false"
     inkscape:window-width="1920"
     inkscape:window-height="1017"
     inkscape:window-x="-8"
     inkscape:window-y="-8"
     inkscape:window-maximized="1"
     fit-margin-top="0"
     fit-margin-left="0"
     fit-margin-right="0"
     fit-margin-bottom="0" />
  <metadata
     id="metadata5">
    <rdf:RDF>
      <cc:Work
         rdf:about="">
        <dc:format>image/svg+xml</dc:format>
        <dc:type
           rdf:resource="http://purl.org/dc/dcmitype/StillImage" />
        <dc:title></dc:title>
      </cc:Work>
    </rdf:RDF>
  </metadata>
  <g
     inkscape:label="Layer 1"
     inkscape:groupmode="layer"
     id="layer1"
     transform="translate(-45.156709,-121.50285)">
    <circle
       r="5.9435711"
       cy="131.34718"
       cx="57.460243"
       id="path1127"
       style="opacity:1;fill:none;fill-opacity:1;stroke:#b02925;stroke-width:0.265;stroke-miterlimit:4;stroke-dasharray:none;stroke-dashoffset:0;stroke-opacity:1" />
    <path
       id="path1145"
       d="m 69.787512,121.58994 c -0.105495,0 -0.727917,0.19366 -1.083949,0.33731 -0.592323,0.239 -1.296875,0.6469 -1.898773,1.09914 -0.526576,0.39565 -0.894683,0.73716 -1.761611,1.63459 -0.655114,0.67816 -0.876421,0.91482 -1.488325,1.5915 -0.895011,0.98974 -1.054541,1.16418 -1.210528,1.32382 -0.086,0.088 -0.534394,0.59209 -0.996411,1.12018 -1.443651,1.6501 -1.594373,1.81854 -2.058654,2.29943 -0.697772,0.72273 -1.371885,1.33824 -1.809655,1.65237 -0.666745,0.47841 -1.219031,0.77733 -1.773766,0.96007 -0.516945,0.17029 -1.151943,0.20405 -1.630539,0.0866 -0.619259,-0.15192 -1.088391,-0.39538 -1.963914,-1.01914 -0.311197,-0.22171 -0.64134,-0.4377 -0.679689,-0.44465 -0.01978,-0.004 -0.130266,-0.0518 -0.245508,-0.10711 -0.49847,-0.23919 -0.804563,-0.33012 -1.39707,-0.41518 -0.417257,-0.0599 -0.592692,-0.0695 -1.140209,-0.0625 -0.427988,0.005 -0.538339,0.0113 -0.692403,0.037 -0.712974,0.11881 -1.25401,0.28796 -1.806734,0.56493 -0.372991,0.18691 -0.836091,0.4543 -0.889976,0.51385 -0.02542,0.0281 -0.0247,0.0315 0.02306,0.11049 0.02709,0.0448 0.06562,0.10071 0.08562,0.12432 l 0.03634,0.043 0.267214,-0.15965 c 0.823216,-0.49198 1.541116,-0.75798 2.377063,-0.88075 0.323329,-0.0475 0.945769,-0.0541 1.341492,-0.0143 0.624496,0.0628 1.005645,0.15118 1.443202,0.3345 0.301265,0.12622 0.697754,0.35219 0.818533,0.46659 0.113202,0.10722 0.845118,0.6063 1.127045,0.76846 0.615146,0.35383 1.156084,0.53332 1.732358,0.57494 1.139419,0.0823 2.448409,-0.43781 3.869772,-1.7462 0.228261,-0.19478 1.10152,-0.99128 1.387289,-1.34498 0.437177,-0.45011 0.561676,-0.59267 1.243042,-1.38188 0.315805,-0.36006 0.739675,-0.86723 0.968621,-1.12704 0.228952,-0.25982 0.433283,-0.49872 0.454107,-0.53095 0.08878,-0.13746 1.567085,-1.76768 2.506673,-2.76433 1.147541,-1.21725 1.713048,-1.72961 2.476186,-2.2434 0.714703,-0.48118 1.38635,-0.79784 2.166776,-1.02162 0.164876,-0.0473 0.30274,-0.089 0.30637,-0.0926 0.0088,-0.009 -0.03686,-0.22848 -0.05434,-0.26114 -0.0076,-0.0142 -0.02953,-0.0256 -0.04872,-0.0256 z"
       style="opacity:1;fill:none;fill-opacity:1;stroke:#b02925;stroke-width:0.26458335;stroke-miterlimit:4;stroke-dasharray:none;stroke-dashoffset:0;stroke-opacity:1"
       inkscape:connector-curvature="0" />
    <path
       id="path1143"
       d="m 66.853733,121.92421 c -0.02566,0.004 -0.110755,0.0634 -0.323922,0.22402 -0.681418,0.51336 -1.070717,0.85181 -1.683082,1.46323 -0.710244,0.70915 -1.420505,1.46911 -2.617841,2.8009 -0.251718,0.27998 -0.509762,0.56123 -0.573365,0.62489 -0.123906,0.12403 -0.550898,0.60597 -1.695456,1.91385 -0.829633,0.94801 -0.950469,1.07971 -1.512963,1.64899 -0.790248,0.79977 -1.264339,1.21157 -1.791768,1.55628 -0.614266,0.40146 -1.129188,0.63232 -1.583509,0.71007 -0.06283,0.0108 -0.226302,0.0186 -0.385469,0.0186 -0.263107,-1.1e-4 -0.285015,-0.002 -0.454666,-0.0462 -0.449528,-0.11639 -0.839905,-0.3283 -1.622434,-0.88064 -0.397203,-0.28036 -0.629392,-0.42495 -0.952422,-0.59317 -0.125645,-0.0654 -0.204497,-0.10911 -0.217557,-0.11119 -0.01271,-0.002 0.09519,0.0401 -0.01271,-0.002 -0.0051,-0.009 -0.05509,-0.004 -0.235645,-0.0739 -0.419993,-0.16277 -0.889654,-0.28671 -1.269599,-0.33495 -0.450086,-0.0572 -1.602945,-0.0413 -2.174311,0.0299 -0.17555,0.0219 -0.167312,0.016 -0.167197,0.1196 0,0.10554 0.02251,0.1975 0.05085,0.20837 0.01104,0.004 0.1498,-0.007 0.308288,-0.0254 0.263487,-0.0303 0.352967,-0.0331 1.044685,-0.0333 0.934327,-3.4e-4 1.021331,0.009 1.584856,0.1681 0.33803,0.0955 0.858483,0.3017 0.910565,0.36071 0.01229,0.0139 0.08816,0.0591 0.168546,0.10036 0.170095,0.0874 0.396322,0.23383 0.732912,0.47425 0.902627,0.64472 1.478111,0.93032 2.007568,0.99652 0.154962,0.0194 0.638817,0.006 0.785449,-0.0219 0.416888,-0.0791 0.906314,-0.27993 1.382226,-0.56717 0.686337,-0.41426 1.190712,-0.83075 2.058988,-1.7003 0.511466,-0.51221 0.899222,-0.93529 1.801215,-1.96515 1.220587,-1.39361 1.386367,-1.58065 1.415418,-1.59746 0.0111,-0.006 0.01648,-0.0182 0.0117,-0.026 -0.01101,-0.0178 0.133792,-0.185 0.842832,-0.97313 0.985592,-1.09553 1.56898,-1.71946 2.249026,-2.4053 0.717549,-0.72367 1.048297,-1.0165 1.680714,-1.48821 0.176029,-0.13129 0.341804,-0.25659 0.368481,-0.27847 l 0.04849,-0.0398 -0.08269,-0.12365 c -0.04554,-0.068 -0.08538,-0.12638 -0.08855,-0.12973 -0.0014,-0.002 -0.004,-0.002 -0.0077,-0.001 z"
       style="opacity:1;fill:none;fill-opacity:1;stroke:#b02925;stroke-width:0.26458335;stroke-miterlimit:4;stroke-dasharray:none;stroke-dashoffset:0;stroke-opacity:1"
       inkscape:connector-curvature="0"
       sodipodi:nodetypes="ccsccccscccccscccscccccccccccccccccccccccc" />
    <path
       id="path1141"
       d="m 64.286412,122.92704 -0.399421,0.40437 c -0.629139,0.63683 -1.409537,1.4797 -2.42634,2.62054 -0.258803,0.29038 -0.486275,0.53512 -0.505521,0.54389 -0.01925,0.009 -0.03499,0.0217 -0.03499,0.0287 0,0.007 -0.08351,0.10579 -0.185534,0.21951 -0.102033,0.11373 -0.45386,0.51448 -0.781855,0.89055 -1.434319,1.64452 -1.528857,1.74826 -2.232482,2.45222 -0.835233,0.83561 -1.241832,1.17489 -1.833734,1.53006 -0.43917,0.26352 -0.715319,0.3719 -1.029494,0.40415 -0.434061,0.0445 -0.762315,-0.0897 -1.530851,-0.62659 -0.820243,-0.57296 -1.166021,-0.78064 -1.622099,-0.97391 -0.08001,-0.0339 -0.147559,-0.0671 -0.150094,-0.0737 -0.01446,-5.7e-4 -0.01244,-0.001 -0.02126,-0.003 -0.01221,-0.001 -0.153953,-0.038 -0.317291,-0.0906 -0.3698,-0.11911 -0.693665,-0.19957 -0.995287,-0.2473 -0.12802,-0.0203 -0.254224,-0.0403 -0.280493,-0.0447 l -0.04782,-0.008 0.0041,0.16438 0.004,0.16427 0.06548,0.01 c 0.277566,0.0419 0.402671,0.0666 0.621518,0.1223 0.308323,0.0785 0.7622,0.22725 0.840585,0.27543 0.03201,0.0197 0.09096,0.0502 0.130969,0.0678 0.375509,0.16555 0.819978,0.41785 1.156522,0.65651 0.412239,0.29234 0.761404,0.52964 0.905162,0.61511 0.294341,0.17499 0.554959,0.29011 0.753276,0.3327 0.135335,0.0291 0.537441,0.0289 0.680703,-2.3e-4 0.290729,-0.0591 0.650592,-0.21718 1.057733,-0.46445 0.660575,-0.40119 1.119492,-0.78261 1.927685,-1.60241 0.625015,-0.63399 0.869647,-0.90523 2.377962,-2.63719 0.128359,-0.14739 0.360969,-0.41257 0.516996,-0.58923 0.156028,-0.17667 0.292504,-0.33821 0.303224,-0.35903 0.06428,-0.12484 1.896975,-2.13759 2.74453,-3.01411 0.192032,-0.1986 0.387918,-0.40377 0.435311,-0.45591 l 0.08619,-0.0947 -0.108686,-0.1088 z"
       style="opacity:1;fill:none;fill-opacity:1;stroke:#b02925;stroke-width:0.26458335;stroke-miterlimit:4;stroke-dasharray:none;stroke-dashoffset:0;stroke-opacity:1"
       inkscape:connector-curvature="0"
       sodipodi:nodetypes="ccccscccccccccccccccccccccccsccccccccc" />
  </g>
</svg>
