<?xml version="1.0" encoding="UTF-8" standalone="no"?>
<svg
   xmlns:dc="http://purl.org/dc/elements/1.1/"
   xmlns:cc="http://creativecommons.org/ns#"
   xmlns:rdf="http://www.w3.org/1999/02/22-rdf-syntax-ns#"
   xmlns:svg="http://www.w3.org/2000/svg"
   xmlns="http://www.w3.org/2000/svg"
   xmlns:sodipodi="http://sodipodi.sourceforge.net/DTD/sodipodi-0.dtd"
   xmlns:inkscape="http://www.inkscape.org/namespaces/inkscape"
   version="1.1"
   x="0px"
   y="0px"
   viewBox="0 0 36 60"
   enable-background="new 0 0 100 100"
   xml:space="preserve"
   id="svg8"
   sodipodi:docname="Locate_your_post_office_Icon.svg"
   width="36"
   height="60"
   inkscape:version="0.92.3 (2405546, 2018-03-11)"><metadata
     id="metadata14"><rdf:RDF><cc:Work
         rdf:about=""><dc:format>image/svg+xml</dc:format><dc:type
           rdf:resource="http://purl.org/dc/dcmitype/StillImage" /><dc:title></dc:title></cc:Work></rdf:RDF></metadata><defs
     id="defs12" /><sodipodi:namedview
     pagecolor="#ffffff"
     bordercolor="#666666"
     borderopacity="1"
     objecttolerance="10"
     gridtolerance="10"
     guidetolerance="10"
     inkscape:pageopacity="0"
     inkscape:pageshadow="2"
     inkscape:window-width="1920"
     inkscape:window-height="1017"
     id="namedview10"
     showgrid="false"
     fit-margin-top="0"
     fit-margin-left="0"
     fit-margin-right="0"
     fit-margin-bottom="0"
     inkscape:zoom="10.680141"
     inkscape:cx="-5.4731719"
     inkscape:cy="30.109547"
     inkscape:window-x="-8"
     inkscape:window-y="-8"
     inkscape:window-maximized="1"
     inkscape:current-layer="svg8" /><path
     d="m 11.114931,23.114932 h 0.983582 v 1.967163 c 0,0.54392 0.43966,0.983581 0.983581,0.983581 h 9.835811 c 0.543921,0 0.983582,-0.439661 0.983582,-0.983581 v -1.967163 h 0.983581 c 0.0079,9.84e-4 0.01475,9.84e-4 0.01967,0 0.543921,0 0.983582,-0.439661 0.983582,-0.983581 0,-0.26655 -0.105244,-0.508511 -0.27737,-0.684572 l -1.873722,-2.811075 c -0.18393,-0.27442 -0.490807,-0.438678 -0.819324,-0.438678 h -9.835811 c -0.328516,0 -0.635394,0.164258 -0.81834,0.437694 l -1.967162,2.950744 c -0.20065,0.301959 -0.220322,0.68949 -0.04918,1.009154 0.171143,0.319664 0.504577,0.520314 0.867518,0.520314 z m 10.819393,0.983581 h -7.868649 v -0.983581 h 7.868649 z m 12.786555,25.573111 h -1.967162 c 0,-2.16978 -1.764544,-3.934325 -3.934325,-3.934325 V 17.213445 h 1.967163 c 0.54392,0 0.983581,-0.439661 0.983581,-0.983581 v -3.934325 c 0,-0.54392 -0.439661,-0.983581 -0.983581,-0.983581 H 30.614428 C 29.657404,5.1773623 24.290985,0.4925652 18,0.4925652 c -6.290985,0 -11.6574041,4.6847971 -12.6144286,10.8193928 H 5.2134447 c -0.5439204,0 -0.9835812,0.439661 -0.9835812,0.983581 v 3.934325 c 0,0.54392 0.4396608,0.983581 0.9835812,0.983581 H 7.180607 v 28.523854 c -2.16978,0 -3.9343246,1.764545 -3.9343246,3.934325 H 1.27912 c -0.54392039,0 -0.98358118,0.43966 -0.98358118,0.983581 v 7.868649 c 0,0.543921 0.43966079,0.983581 0.98358118,0.983581 h 33.441759 c 0.543921,0 0.983582,-0.43966 0.983582,-0.983581 v -7.868649 c 0,-0.543921 -0.439661,-0.983581 -0.983582,-0.983581 z M 18,2.4597275 c 5.219865,0 9.696143,3.8094099 10.631528,8.8522305 H 7.368471 C 8.3038567,6.2691374 12.780134,2.4597275 18,2.4597275 Z"
     id="path2"
     inkscape:connector-curvature="0"
     sodipodi:nodetypes="scsssscccsccssccsscccccscccsssscscsssscccsssssssssccs"
     style="fill:none;stroke:#b02925;stroke-width:0.98645669;stroke-miterlimit:4;stroke-dasharray:none;stroke-opacity:1" /></svg>