<?xml version="1.0" encoding="UTF-8" standalone="no"?>
<svg
   xmlns:dc="http://purl.org/dc/elements/1.1/"
   xmlns:cc="http://creativecommons.org/ns#"
   xmlns:rdf="http://www.w3.org/1999/02/22-rdf-syntax-ns#"
   xmlns:svg="http://www.w3.org/2000/svg"
   xmlns="http://www.w3.org/2000/svg"
   xmlns:sodipodi="http://sodipodi.sourceforge.net/DTD/sodipodi-0.dtd"
   xmlns:inkscape="http://www.inkscape.org/namespaces/inkscape"
   version="1.1"
   x="0px"
   y="0px"
   viewBox="0 0 60 60"
   enable-background="new 0 0 100 100"
   xml:space="preserve"
   id="svg18"
   sodipodi:docname="Track_&amp;_Trace_Icon.svg"
   inkscape:version="0.92.3 (2405546, 2018-03-11)"
   width="60"
   height="60"><metadata
     id="metadata24"><rdf:RDF><cc:Work
         rdf:about=""><dc:format>image/svg+xml</dc:format><dc:type
           rdf:resource="http://purl.org/dc/dcmitype/StillImage" /><dc:title></dc:title></cc:Work></rdf:RDF></metadata><defs
     id="defs22" /><sodipodi:namedview
     pagecolor="#ffffff"
     bordercolor="#666666"
     borderopacity="1"
     objecttolerance="10"
     gridtolerance="10"
     guidetolerance="10"
     inkscape:pageopacity="0"
     inkscape:pageshadow="2"
     inkscape:window-width="1920"
     inkscape:window-height="1017"
     id="namedview20"
     showgrid="false"
     inkscape:zoom="7.2407734"
     inkscape:cx="29.718508"
     inkscape:cy="31.233524"
     inkscape:window-x="-8"
     inkscape:window-y="-8"
     inkscape:window-maximized="1"
     inkscape:current-layer="svg18"
     fit-margin-top="0"
     fit-margin-left="0"
     fit-margin-right="0"
     fit-margin-bottom="0" /><path
     style="fill:none;stroke:#b02925;stroke-width:1.00157475;stroke-miterlimit:4;stroke-dasharray:none;stroke-opacity:1"
     d="m 30.18305,0.34557153 c -2.5075,-4e-4 -4.9996,0.98649997 -6.8312,2.69909997 -1.6476,1.5327 -2.7571,3.6355 -3.0781,5.8638 -0.167,1.1379995 -0.1056,2.3083005 0.1709,3.4245005 0.2767,1.2029 0.6722,2.3751 1.1033,3.5306 0.6857,1.8257 1.4844,3.6067 2.3311,5.363 0.129,0.2684 0.2589,0.5364 0.3892,0.8041 -4.9686,1.7049 -9.9419,3.3962 -14.9072,5.1106 -0.1088,0.066 -0.1736,0.18 -0.2369,0.2864 -0.107,0.1716 -0.2758,0.2896 -0.4182,0.4289 -1.9138,1.8026 -3.8318,3.6009 -5.7478,5.4013 -0.8599,0.8077 -1.7198,1.6155 -2.5797,2.4233 2.9143,1.4274 5.8286,2.8549 8.7429,4.2823 0,4.3257 -0.01,8.6514 0.01,12.977 0.041,0.1906 0.2046,0.3411 0.3918,0.3853 0.51,0.1507 1.008,0.3385 1.5136,0.503 1.167,0.3916 2.3332,0.7857 3.4999,1.1784 5.2642,1.7738 10.5276,3.5503 15.7946,5.3161 0.048,0.018 0.1009,0.025 0.1524,0.021 0.1536,-0.01 0.2955,-0.076 0.4395,-0.124 0.61,-0.2178 1.2236,-0.4251 1.8348,-0.6394 1.9705,-0.6858 3.9409,-1.3718 5.9117,-2.0564 4.0842,-1.4202 8.1682,-2.8408 12.2504,-4.2666 0.1504,-0.083 0.2429,-0.2512 0.2496,-0.4206 2e-4,-0.067 -0.01,-0.1335 -0.01,-0.2003 -0.01,-0.4479 1e-4,-0.8959 0,-1.3438 0,-3.8958 2e-4,-7.7915 6e-4,-11.6872 2.8204,-1.3815 5.6409,-2.7629 8.4613,-4.1443 -2.8227,-2.6512 -5.6453,-5.3024 -8.468,-7.9535 -0.01,-0.167 -0.1197,-0.3188 -0.2693,-0.3863 -0.2199,-0.096 -0.4567,-0.1441 -0.6797,-0.2316 -0.3297,-0.1169 -0.662,-0.2268 -0.9926,-0.3414 -4.3269,-1.4813 -8.6537,-2.9625 -12.9806,-4.4438 1.3077,-2.742 2.5558,-5.527 3.4193,-8.4453 0.2998,-1.0148 0.5487,-2.0542 0.5956,-3.1147 0.048,-1.1188005 -0.1347,-2.2401005 -0.4796,-3.3030005 -0.639,-1.9522 -1.8968,-3.6982 -3.5511,-4.9167 -1.5467,-1.1458 -3.4259,-1.84239996 -5.348,-1.95919996 -0.2275,-0.014 -0.4556,-0.021 -0.6836,-0.021 z m 0.071,0.91739997 c 2.5173,5e-4 5.0118,1.1064 6.7046,2.9692 1.4346,1.5691 2.3019,3.6555 2.3615,5.7838995 0.022,0.841001 -0.1021,1.680701 -0.3098,2.493901 -0.3209,1.3064 -0.7695,2.5773 -1.2532,3.8313 -0.735,1.8874 -1.5747,3.7323 -2.4641,5.5515 -0.8858,1.8034 -1.8279,3.5795 -2.8381,5.3164 -0.4995,0.8501 -1.0193,1.6897 -1.6006,2.4868 -0.088,0.1126 -0.1818,0.2272 -0.3075,0.2995 -0.152776,1.19113 -0.416288,0.956454 -0.6063,-0.1331 -0.087,-0.094 -0.1471,-0.21 -0.2257,-0.3113 -0.2414,-0.3358 -0.483,-0.6717 -0.7082,-1.0187 -0.8876,-1.3388 -1.6733,-2.7412 -2.4505,-4.146 -1.2782,-2.3338 -2.4552,-4.7245 -3.4838,-7.1791 -0.3882,-0.9294 -0.7561,-1.8678 -1.0827,-2.8208 -0.3165,-0.9312 -0.5902,-1.8794 -0.7654,-2.8481 -0.1002,-0.5797 -0.1374,-1.1707 -0.1025,-1.7581005 0.1105,-2.0417 0.9682,-4.0237 2.341,-5.5338 0.6391,-0.7052 1.3911,-1.3076 2.2185,-1.7779 1.3195,-0.7532 2.828,-1.1779 4.3483,-1.2031 h 0.2245 z m -5.5627,21.5998005 c 0.9238,1.7731 1.8445,3.5514 2.9115,5.244 0.4556,0.7129 0.9212,1.4213 1.4481,2.0842 0.2903,0.359 0.6095,0.7 0.9872,0.9683 0.097,0.066 0.2068,0.1272 0.3277,0.1231 0.119,-0.01 0.225,-0.07 0.3178,-0.1405 0.3146,-0.2261 0.5705,-0.5209 0.8216,-0.8135 0.6571,-0.777 1.1934,-1.6454 1.7232,-2.5117 0.8783,-1.4424 1.6548,-2.9434 2.4262,-4.4448 0.049,-0.092 0.094,-0.1861 0.1505,-0.2736 0.079,-0.934254 0.2171,-0.16037 0.3225,-0.059 0.2374,0.086 0.4774,0.1642 0.7157,0.2474 2.2863,0.7828 4.5729,1.5648 6.8592,2.3475 2.084,0.7132 4.168,1.4265 6.252,2.1398 -6.754,2.4082 -13.508,4.8164 -20.262,7.2247 -6.2481,-2.2323 -12.5027,-4.4466 -18.7449,-6.6952 -0.263447,-0.08253 -2.9599822,-0.07204 -0.214707,-0.620856 0.057,-0.145 0.211807,-0.146744 0.362207,-0.175944 0.082,-0.021 0.1599,-0.054 0.2405,-0.079 1.2408,-0.4232 2.4808,-0.8489 3.7214,-1.273 3.2107,-1.0988 6.4213,-2.1976 9.632,-3.2965 v 0 z m 26.1156,5.5869 c 2.4031,2.2576 4.8063,4.5152 7.2094,6.7728 -5.8327,2.8573 -11.6655,5.7145 -17.4983,8.5718 -3.167,-2.7643 -6.334,-5.5286 -9.501,-8.2928 6.5957,-2.3514 13.1915,-4.7029 19.7873,-7.0543 v 0 z m -41.6072,0.2175 c 6.5941,2.3513 13.1882,4.7023 19.7823,7.0535 -3.167,2.764 -6.334,5.5281 -9.501,8.2921 -5.8328,-2.857 -11.6656,-5.7141 -17.4983,-8.5711 2.4045,-2.2586 4.8091,-4.5172 7.2136,-6.7758 v 0 z m 20.8023,7.4027 v 23.1784 c -6.6498,-2.2406 -13.2996,-4.4812 -19.9494,-6.7217 v -12.1078 c 3.1918,1.5635 6.3837,3.1269 9.5755,4.6904 3.458,-3.0175 6.9159,-6.0349 10.3739,-9.0524 v 0.013 z m 0.9398,0.5918 c 3.1433,2.7428 6.2865,5.4856 9.4297,8.2283 l 9.8574,-4.8279 v 12.4676 c -6.4323,2.2373 -12.8646,4.4747 -19.2969,6.712 v -22.5886 l 0.01,0.01 z"
     id="path8"
     inkscape:connector-curvature="0"
     sodipodi:nodetypes="ccccccccccccccccccccccccccccccccccccccccccccccccccccccccccccccccccccccccccccccccccccccccccccccccccccccccccccccccscc" /><path
     style="stroke-width:1.0015748;fill:none;stroke:#b02925;stroke-opacity:1;stroke-miterlimit:4;stroke-dasharray:none"
     d="m 30.18485,5.6094045 c -1.319,0 -2.6189,0.6413 -3.4342,1.6777 -0.6925,0.8736 -1.0228,2.0217 -0.9104,3.1295005 0.089,0.9165 0.4867,1.7984 1.109,2.4771 0.6167,0.6815 1.4485,1.1703 2.3505,1.3542 1.001,0.2084 2.0753,0.067 2.9797,-0.4147 1.0197,-0.5422 1.8187,-1.4963 2.1511,-2.6047 0.3324,-1.1025 0.2051,-2.3363005 -0.3542,-3.3443005 -0.5755,-1.0447 -1.5939,-1.8369 -2.7501,-2.1336 -0.3726,-0.096 -0.7567,-0.1435 -1.1414,-0.1412 z m 0.058,0.9646 c 1.1611,0.001 2.2921,0.6487 2.8987,1.6356 0.4974,0.8048 0.619,1.8227005 0.3536,2.7279005 -0.122,0.4196 -0.3274,0.8148 -0.6023,1.1546 -0.4324,0.5376 -1.0295,0.9409 -1.6904,1.1393 -0.6076,0.1843 -1.2678,0.1991 -1.8802,0.028 -0.8635,-0.2369 -1.6325,-0.8169 -2.0778,-1.5962 -0.5029,-0.877 -0.5903,-1.9835005 -0.217,-2.9246005 0.3574,-0.9064 1.1208,-1.6419 2.0388,-1.9677 0.3765,-0.1346 0.7769,-0.1997 1.1766,-0.1971 z"
     id="path10"
     inkscape:connector-curvature="0" /></svg>